#!OML:ASF Y:\EmotionMaleHayes\Project 1\Capture day 1\Session 1\Male1.ASF
:FULLY-SPECIFIED
:DEGREES
746
root 12.6029 16.94 8.9617 349.117 47.7899 352.122
lowerback 11.0495 2.15995 2.96257
upperback 3.80194 3.28832 1.2322
thorax -2.12788 1.67447 -0.800905
lowerneck -20.3858 5.66059 8.24218
upperneck 30.7817 7.12747 -4.23273
head 14.4851 3.56215 -1.78027
rclavicle -3.21037e-014 4.37326e-015
rhumerus -20.7577 1.82156 -78.3443
rradius 37.4245
rwrist 1.16926
rhand -16.027 -32.3398
rfingers 7.12502
rthumb 10.1741 -62.0738
lclavicle -3.21037e-014 4.37326e-015
lhumerus -35.9076 13.1278 77.1825
lradius 15.1062
lwrist -53.4472
lhand 1.62753 -23.3157
lfingers 7.12502
lthumb 27.1483 4.75165
rfemur 1.56809 1.31948 22.4428
rtibia 18.3821
rfoot -16.7798 -2.57884
rtoes -2.11738
lfemur -10.6296 6.35508 -13.8457
ltibia 64.7508
lfoot -5.96749 -0.476889
ltoes 0.158865
747
root 12.6999 16.9618 9.07769 348.034 47.6762 350.82
lowerback 11.285 2.35312 3.89713
upperback 3.75202 3.6654 1.42525
thorax -2.24808 1.86235 -1.18094
lowerneck -20.2214 5.51602 8.22327
upperneck 30.7764 6.93666 -4.21265
head 14.429 3.4875 -1.80876
rclavicle 3.97569e-015 -2.5842e-015
rhumerus -20.1062 2.30241 -78.0139
rradius 38.125
rwrist 0.395639
rhand -16.1191 -32.5313
rfingers 7.12502
rthumb 10.0853 -62.2696
lclavicle 3.97569e-015 -2.5842e-015
lhumerus -36.6354 12.2494 77.016
lradius 15.2624
lwrist -52.8279
lhand 1.46151 -23.2239
lfingers 7.12502
lthumb 26.9895 4.86808
rfemur 2.71844 1.32088 23.6341
rtibia 17.5723
rfoot -16.8349 -2.56839
rtoes -2.11829
lfemur -11.9162 7.1631 -12.9208
ltibia 64.0514
lfoot -6.48209 -0.857603
ltoes -0.375786
748
root 12.8053 16.9809 9.19229 347.27 47.612 349.912
lowerback 11.3812 2.55344 4.54837
upperback 3.76826 4.01466 1.57961
thorax -2.23226 2.03889 -1.43026
lowerneck -20.1943 5.39429 8.27045
upperneck 30.7442 6.81842 -4.42044
head 14.4101 3.41602 -1.92458
rclavicle 9.91439e-014 -7.15625e-015
rhumerus -19.3957 3.06224 -77.5433
rradius 38.8664
rwrist -0.609936
rhand -15.9578 -32.6362
rfingers 7.12502
rthumb 10.2409 -62.3669
lclavicle 9.91439e-014 -7.15625e-015
lhumerus -37.386 11.8178 76.7208
lradius 15.7009
lwrist -52.178
lhand 1.94566 -23.0967
lfingers 7.12502
lthumb 27.4526 4.92274
rfemur 3.86534 1.30274 24.4502
rtibia 16.7816
rfoot -16.9078 -2.51494
rtoes -1.46397
lfemur -13.1415 7.91808 -12.4006
ltibia 63.1171
lfoot -6.9412 -0.870557
ltoes -1.13498
749
root 12.9125 16.9977 9.30374 347.106 47.7176 349.68
lowerback 11.3468 2.75071 4.7627
upperback 3.80539 4.29596 1.55257
thorax -2.14051 2.18281 -1.60729
lowerneck -20.3194 5.28157 8.29495
upperneck 30.7087 6.67081 -4.53623
head 14.4153 3.33782 -2.00179
rclavicle 3.00662e-014 -1.45113e-014
rhumerus -18.5622 3.7253 -77.1093
rradius 39.5656
rwrist -1.37532
rhand -15.7807 -32.9533
rfingers 7.12502
rthumb 10.4117 -62.6755
lclavicle 3.00662e-014 -1.45113e-014
lhumerus -38.1253 11.6971 76.1952
lradius 16.2206
lwrist -51.5038
lhand 2.19235 -23.1682
lfingers 7.12502
lthumb 27.6885 4.81356
rfemur 4.96843 1.06762 24.5779
rtibia 15.8558
rfoot -16.8954 -2.3424
rtoes -1.59714
lfemur -14.4166 8.44985 -12.5571
ltibia 61.9784
lfoot -7.30241 -0.714225
ltoes -1.48112
750
root 13.0155 17.0108 9.41042 347.113 47.9712 349.559
lowerback 11.2196 2.89643 4.993
upperback 3.83541 4.50087 1.42738
thorax -1.99854 2.29045 -1.87872
lowerneck -20.3836 5.17204 8.13654
upperneck 30.5972 6.4792 -4.3255
head 14.3474 3.26436 -1.92356
rclavicle -5.48646e-014 3.79679e-014
rhumerus -17.6661 3.9844 -76.7778
rradius 40.2194
rwrist -1.83961
rhand -15.8009 -33.0058
rfingers 7.12502
rthumb 10.3922 -62.729
lclavicle -5.48646e-014 3.79679e-014
lhumerus -38.5838 10.367 76.2687
lradius 16.5988
lwrist -49.532
lhand 1.70426 -23.4205
lfingers 7.12502
lthumb 27.2217 4.63537
rfemur 5.92562 0.575578 24.4906
rtibia 15.0044
rfoot -16.8007 -2.0014
rtoes -3.22059
lfemur -15.7587 8.64452 -12.9132
ltibia 60.6395
lfoot -7.67855 -0.471995
ltoes -0.621236
751
root 13.1162 17.0206 9.51349 347.118 48.2238 349.385
lowerback 11.1804 3.05447 5.2754
upperback 3.78635 4.73578 1.32493
thorax -1.97985 2.40824 -2.16662
lowerneck -20.4191 5.01768 7.94132
upperneck 30.4912 6.22788 -4.08112
head 14.2692 3.16682 -1.83747
rclavicle 2.6339e-014 -1.98785e-014
rhumerus -16.9667 4.36188 -76.3542
rradius 40.9593
rwrist -2.54417
rhand -15.8561 -33.0746
rfingers 7.12502
rthumb 10.339 -62.8004
lclavicle 2.6339e-014 -1.98785e-014
lhumerus -38.886 7.96846 76.9819
lradius 16.7919
lwrist -46.3091
lhand 1.46484 -23.5874
lfingers 7.12502
lthumb 26.9927 4.50408
rfemur 6.75893 0.0372023 24.4135
rtibia 14.2607
rfoot -16.6002 -1.55293
rtoes -4.01239
lfemur -17.1317 8.85979 -13.2174
ltibia 59.2461
lfoot -8.01717 -0.135435
ltoes -0.465513
752
root 13.2199 17.0238 9.61651 347.114 48.4188 349.169
lowerback 11.1986 3.23634 5.49582
upperback 3.64664 5.00418 1.29672
thorax -2.09365 2.5357 -2.35488
lowerneck -20.3345 4.85061 7.87905
upperneck 30.45 6.01804 -4.09023
head 14.2135 3.07169 -1.87134
rclavicle -2.74323e-014 -1.27222e-014
rhumerus -16.3333 4.89509 -75.7917
rradius 41.5381
rwrist -3.36061
rhand -16.0576 -33.2565
rfingers 7.12502
rthumb 10.1446 -62.9919
lclavicle -2.74323e-014 -1.27222e-014
lhumerus -39.4031 6.13377 77.4923
lradius 16.9569
lwrist -43.2553
lhand 1.56241 -23.6699
lfingers 7.12502
lthumb 27.086 4.40716
rfemur 7.55464 -0.717404 24.2817
rtibia 13.4997
rfoot -16.4626 -0.92472
rtoes -3.94697
lfemur -18.4645 9.2637 -13.4508
ltibia 57.7874
lfoot -8.42812 0.335507
ltoes -1.47822
